<?xml version="1.0" standalone="no"?>
<!DOCTYPE svg PUBLIC "-//W3C//DTD SVG 20010904//EN"
 "http://www.w3.org/TR/2001/REC-SVG-20010904/DTD/svg10.dtd">
<svg version="1.0" xmlns="http://www.w3.org/2000/svg"
 width="300.000000pt" height="300.000000pt" viewBox="0 0 300.000000 300.000000"
 preserveAspectRatio="xMidYMid meet">
<metadata>
Created by potrace 1.11, written by Peter Selinger 2001-2013
</metadata>
<g transform="translate(0.000000,300.000000) scale(0.100000,-0.100000)"
fill="#000000" stroke="none">
<path d="M2106 2973 c-3 -16 -8 -44 -11 -63 -3 -19 -7 -46 -10 -60 -3 -14 -7
-41 -10 -60 -3 -19 -17 -98 -30 -175 -14 -77 -27 -153 -30 -170 -7 -38 -27
-148 -65 -350 -16 -88 -32 -176 -35 -195 -13 -76 -107 -538 -121 -592 -8 -31
-15 -68 -16 -82 -1 -14 -4 -23 -7 -20 -6 5 -8 17 -17 99 -3 33 -8 69 -10 80
-2 11 -6 47 -9 80 -3 33 -8 71 -10 85 -6 40 -14 101 -20 150 -4 25 -8 56 -10
70 -2 14 -7 48 -10 76 -3 28 -7 60 -10 72 -2 11 -6 47 -10 78 -3 32 -8 60 -10
64 -2 4 -5 25 -6 48 -2 23 -5 43 -8 43 -4 1 -27 2 -52 3 -51 2 -48 10 -35 -87
3 -26 8 -68 11 -94 3 -27 8 -59 10 -73 3 -14 7 -52 11 -85 3 -33 8 -67 9 -75
2 -8 6 -44 10 -80 4 -36 9 -74 11 -85 2 -11 6 -42 9 -70 4 -27 8 -61 10 -75 2
-14 11 -77 20 -140 9 -63 18 -130 20 -147 3 -18 7 -50 10 -70 3 -21 7 -47 10
-58 2 -11 7 -47 10 -80 4 -33 8 -62 10 -65 2 -3 6 -30 10 -60 4 -30 8 -57 10
-60 2 -3 6 -28 10 -56 3 -28 10 -64 14 -80 7 -27 9 -26 19 26 6 30 20 107 32
170 11 63 22 126 25 140 2 14 11 66 20 115 8 50 17 97 20 105 2 8 6 33 10 55
3 22 14 85 24 140 11 55 22 118 25 139 4 22 22 123 41 225 19 102 37 204 41
226 3 22 9 58 14 80 5 22 16 85 25 140 10 55 19 109 21 120 2 11 17 99 34 195
16 96 32 186 34 200 6 31 16 96 21 135 3 17 9 54 15 84 17 88 15 91 -29 91
-35 0 -40 -3 -45 -27z"/>
<path d="M2287 2978 c-6 -26 -103 -516 -111 -563 -3 -16 -15 -79 -26 -140 -25
-131 -47 -252 -94 -520 -20 -110 -38 -211 -40 -225 -3 -14 -14 -79 -26 -145
-11 -66 -22 -133 -25 -150 -3 -16 -12 -66 -20 -110 -8 -44 -17 -95 -20 -112
-3 -18 -8 -48 -11 -65 -3 -18 -8 -44 -9 -57 -2 -14 -16 -89 -31 -168 -14 -79
-24 -146 -22 -149 8 -8 78 -13 79 -5 0 3 2 13 5 21 3 15 18 79 29 130 12 61
27 138 31 170 2 19 7 42 9 50 2 8 7 31 10 50 3 19 14 80 25 135 10 55 21 116
25 135 10 64 56 324 75 425 10 55 21 118 24 140 6 36 49 284 60 345 4 22 50
291 61 360 2 14 6 39 9 55 3 17 7 44 10 60 5 30 34 200 41 244 2 13 7 44 11
68 l6 43 -35 0 c-28 0 -36 -4 -40 -22z"/>
<path d="M2457 2978 c-6 -24 -82 -424 -97 -513 -5 -27 -23 -124 -40 -215 -27
-146 -59 -317 -74 -405 -3 -16 -8 -41 -11 -55 -3 -14 -7 -37 -10 -52 -2 -14
-10 -61 -19 -105 -8 -43 -17 -91 -20 -108 -2 -16 -18 -104 -35 -195 -17 -91
-33 -183 -36 -205 -4 -22 -8 -47 -10 -55 -3 -8 -7 -33 -10 -55 -3 -22 -8 -49
-10 -61 -3 -12 -7 -39 -10 -60 -4 -21 -8 -50 -11 -64 -2 -14 -7 -43 -10 -65
-3 -22 -11 -67 -18 -100 -20 -103 -21 -101 52 -96 15 1 22 17 35 89 9 48 30
161 47 252 17 91 49 262 70 380 21 118 41 229 44 245 3 17 11 59 17 95 5 36
14 84 19 106 5 23 12 56 14 75 8 52 15 95 36 209 11 58 22 122 26 144 3 21 8
48 10 60 2 11 6 35 9 51 5 29 48 277 60 340 3 17 8 46 11 65 2 19 9 58 14 85
26 131 39 219 34 227 -3 4 -20 8 -39 8 -26 0 -34 -5 -38 -22z"/>
<path d="M476 2150 c-2 -3 -2 -14 -1 -25 1 -11 5 -47 9 -80 4 -33 9 -67 11
-75 2 -8 6 -37 9 -65 6 -45 21 -160 31 -225 2 -14 6 -43 9 -65 10 -75 57 -400
61 -426 3 -15 7 -44 10 -65 8 -59 12 -95 20 -144 6 -45 32 -214 40 -260 2 -14
14 -86 25 -160 11 -74 22 -142 25 -150 2 -8 6 -37 10 -64 3 -27 8 -52 10 -55
1 -3 6 -28 10 -56 3 -27 14 -90 23 -140 l17 -90 34 -3 c18 -2 37 0 41 5 4 4
-1 62 -11 128 -19 127 -46 316 -54 375 -3 19 -7 49 -10 65 -3 17 -7 47 -10 68
-3 20 -7 52 -10 70 -2 17 -6 48 -9 67 -7 51 -36 251 -41 280 -2 14 -11 75 -20
135 -8 61 -18 125 -20 143 -3 17 -7 49 -10 70 -3 20 -7 46 -10 57 -2 11 -7 47
-10 80 -3 33 -8 67 -10 75 -2 8 -7 35 -10 60 -3 25 -8 56 -10 70 -3 14 -7 47
-11 74 -3 27 -9 71 -14 98 -5 27 -9 52 -8 56 1 4 -1 25 -5 47 -4 22 -10 58
-13 80 -3 22 -8 42 -11 45 -6 7 -84 7 -87 0z"/>
<path d="M661 2116 c4 -23 9 -61 12 -86 8 -59 33 -235 43 -290 2 -14 8 -61 14
-105 6 -44 15 -107 20 -140 12 -69 29 -184 36 -235 11 -83 55 -390 64 -440 5
-30 12 -75 15 -100 11 -75 55 -372 61 -405 3 -16 7 -43 9 -60 4 -26 17 -109
29 -185 3 -14 5 -35 5 -47 1 -22 5 -23 89 -23 l88 0 28 148 c15 81 34 179 41
217 8 39 25 131 39 205 90 483 188 982 192 978 1 -2 5 -23 8 -48 4 -25 9 -56
11 -70 2 -14 7 -50 11 -80 7 -61 7 -60 24 -180 13 -97 14 -105 35 -255 9 -60
18 -126 21 -145 2 -20 6 -45 8 -55 2 -11 7 -48 11 -82 4 -36 12 -63 18 -64 7
0 25 -2 40 -3 16 -1 30 1 33 5 2 3 -5 78 -16 165 -19 152 -23 182 -35 292 -3
26 -8 61 -10 77 -2 17 -7 53 -10 80 -6 51 -11 92 -20 155 -7 47 -14 104 -21
168 -3 29 -7 62 -9 74 -3 11 -7 46 -10 77 -3 31 -8 65 -10 76 -2 11 -11 65
-19 120 -17 112 -19 120 -42 225 -9 41 -18 71 -20 65 -2 -5 -14 -77 -28 -160
-14 -82 -28 -161 -31 -175 -2 -13 -7 -42 -11 -65 -3 -22 -17 -98 -30 -170 -14
-71 -27 -143 -30 -160 -2 -16 -12 -68 -20 -115 -9 -47 -18 -96 -20 -110 -3
-14 -14 -72 -25 -130 -11 -58 -22 -121 -25 -140 -3 -19 -7 -42 -10 -51 -4 -15
-31 -157 -39 -209 -4 -25 -54 -284 -80 -415 -8 -38 -17 -86 -20 -105 -11 -65
-10 -69 -50 205 -9 61 -18 121 -20 135 -5 28 -51 344 -60 405 -3 23 -7 50 -9
61 -2 12 -7 45 -11 75 -4 30 -11 76 -16 102 -5 26 -8 51 -7 55 1 4 -1 25 -5
47 -4 22 -10 58 -13 80 -3 22 -7 47 -9 55 -2 8 -7 44 -10 80 -4 36 -8 67 -10
70 -2 3 -7 35 -10 70 -4 36 -8 67 -10 70 -2 3 -6 30 -9 60 -4 30 -9 66 -11 80
-2 14 -7 43 -9 65 -5 34 -12 86 -40 280 -3 17 -11 20 -58 21 l-55 1 8 -41z"/>
<path d="M846 2151 c-2 -4 -2 -15 0 -26 2 -11 6 -40 9 -65 3 -25 17 -119 30
-210 13 -91 26 -187 30 -215 3 -27 8 -61 10 -75 2 -14 9 -63 15 -110 6 -47 13
-96 15 -110 2 -14 7 -47 10 -75 4 -27 13 -88 20 -135 8 -47 17 -104 20 -127 2
-23 12 -81 20 -130 9 -48 23 -131 32 -183 9 -52 19 -98 22 -102 6 -6 49 188
76 342 2 14 22 115 44 225 22 110 43 216 46 235 3 19 21 114 40 210 19 96 37
190 40 207 3 18 12 61 20 95 7 35 17 83 20 108 4 24 8 47 10 50 2 4 7 27 10
52 l6 45 -52 -1 c-38 -1 -53 -5 -54 -16 -2 -8 -12 -62 -23 -120 -22 -112 -33
-173 -37 -205 -2 -11 -12 -69 -24 -130 -11 -60 -23 -126 -26 -145 -3 -19 -21
-111 -40 -204 -19 -93 -35 -173 -35 -179 0 -16 -10 -2 -14 19 -2 11 -7 44 -12
74 -4 30 -8 57 -9 60 -1 3 -5 37 -10 75 -5 39 -9 72 -10 75 -1 3 -5 32 -9 65
-4 33 -11 83 -16 110 -5 28 -12 75 -15 105 -3 30 -8 62 -10 70 -2 8 -6 35 -9
60 -3 25 -13 96 -21 159 -8 63 -15 117 -15 121 0 7 -100 8 -104 1z"/>
</g>
</svg>
